#N canvas 0 0 1366 695 10;
#X declare -lib mrpeach;
#X declare -lib mrpeach;
#X obj -1274 -1316 import mrpeach;
#X obj -1266 -1231 unpackOSC;
#X floatatom -1313 -1086 5 0 0 0 - - -;
#X floatatom -1282 -1067 5 0 0 0 - - -;
#X floatatom -1161 -1076 5 0 0 0 - - -;
#X floatatom -1114 -1076 5 0 0 0 - - -;
#X obj -1203 -1137 routeOSC /r_hand/position/norm;
#X obj -1293 -1173 routeOSC /l_hand/position/norm;
#X obj -1308 -1140 unpack 1 2 3;
#X floatatom -1333 -1111 5 0 0 0 - - -;
#X obj -1185 -1103 unpack 1 2 3;
#X floatatom -1209 -1078 5 0 0 0 - - -;
#X obj -994 -1224 vsl 15 128 0 127 0 0 empty empty empty 0 -9 0 10
-262144 -1 -1 0 1;
#X obj -1308 -939 s lx;
#X obj -1281 -911 s ly;
#X obj -1234 -899 s lz;
#X obj -1189 -952 s rx;
#X obj -1161 -932 s ry;
#X obj -1134 -910 s rz;
#X obj -973 -1167 r lx;
#X obj -968 -1145 hsl 128 15 0 127 0 0 empty empty empty -2 -8 0 10
-262144 -1 -1 0 1;
#X obj -994 -1306 r ly;
#X obj -965 -1239 r lz;
#X obj -966 -1213 nbx 3 33 -1e+037 1e+037 0 0 empty empty empty 0 -8
0 33 -262144 -1 -1 0 256;
#X obj -785 -1261 vsl 15 128 0 127 0 0 empty empty empty 0 -9 0 10
-262144 -1 -1 0 1;
#X obj -758 -1150 hsl 128 15 0 127 0 0 empty empty empty -2 -8 0 10
-262144 -1 -1 0 1;
#X obj -756 -1211 nbx 3 33 -1e+037 1e+037 0 0 empty empty empty 0 -8
0 33 -262144 -1 -1 0 256;
#X obj -784 -1311 r ry;
#X obj -755 -1245 r rz;
#X obj -763 -1172 r rx;
#X obj -1325 -1049 * 127;
#X obj -1295 -1002 * 127;
#X obj -1267 -963 * 127;
#X obj -1209 -1020 * 127;
#X obj -1177 -999 * 127;
#X obj -1145 -973 * 127;
#X obj -990 -1014 ctlout 6 1;
#X obj -970 -995 ctlout 7 1;
#X obj -764 -1011 ctlout 8 1;
#X obj -842 -1034 ctlout 9 1;
#X obj -943 -974 ctlout 10 1;
#X obj -702 -1001 ctlout 11 1;
#X obj -568 -816 nbx 5 44 -1e+037 1e+037 0 0 empty empty empty 0 -8
0 44 -262144 -1 -1 0 256;
#X obj -573 -873 routeOSC /r_hand/velocity/norm;
#X obj -572 -847 unpack 0 1 2;
#X obj -1259 -1282 udpreceive 8001;
#X obj -609 -916 udpsend;
#X obj -546 -972 packOSC;
#X msg -529 -1185 disconnect;
#X text -452 -997 <-- prepare an OSC message;
#X text -453 -971 <-- pack the message;
#X text -430 -954 as an array of bytes;
#X text -540 -916 <-- send the packed message;
#X obj -601 -1251 import mrpeach;
#X text -600 -1287 sending OSC messages;
#X msg -599 -1207 connect localhost 12000;
#X msg -546 -997 send /leftX \$1;
#X msg -509 -1036 send /leftY \$1;
#X obj -1286 -806 s lxb;
#X obj -1225 -794 s lyb;
#X obj -1178 -808 s lzb;
#X obj -269 -1129 nbx 3 33 -1e+037 1e+037 0 0 empty empty empty 0 -8
0 33 -262144 -1 -1 0 256;
#X obj -376 -1131 nbx 3 33 -1e+037 1e+037 0 0 empty empty empty 0 -8
0 33 -262144 -1 -1 0 256;
#X obj -498 -1141 nbx 3 33 -1e+037 1e+037 0 0 empty empty empty 0 -8
0 33 -262144 -1 -1 0 256;
#X obj -1180 -836 * 200;
#X msg -451 -1071 send /leftZ \$1;
#X obj -444 -1172 int;
#X obj -367 -1162 int;
#X obj -287 -1174 int;
#X floatatom -1082 -831 5 0 0 0 - - -;
#X floatatom -1003 -831 5 0 0 0 - - -;
#X obj -1076 -885 unpack 1 2 3;
#X floatatom -1105 -846 5 0 0 0 - - -;
#X obj -1100 -802 * 127;
#X obj -1068 -781 * 127;
#X obj -1036 -755 * 127;
#X obj -1080 -734 s hx;
#X obj -1052 -714 s hy;
#X obj -1025 -692 s hz;
#X obj -839 -937 vsl 15 128 0 127 0 0 empty empty empty 0 -9 0 10 -262144
-1 -1 0 1;
#X obj -788 -845 hsl 128 15 0 127 0 0 empty empty empty -2 -8 0 10
-262144 -1 -1 0 1;
#X obj -803 -823 nbx 3 33 -1e+037 1e+037 0 0 empty empty empty 0 -8
0 33 -262144 -1 -1 0 256;
#X obj -855 -961 r hy;
#X obj -823 -962 r hz;
#X obj -789 -868 r hx;
#X obj -921 -821 ctlout 12 1;
#X obj -902 -794 ctlout 13 1;
#X obj -360 -1299 r rxb;
#X obj -332 -1273 r ryb;
#X obj -291 -1261 r rzb;
#X obj -1267 -694 s rxb;
#X obj -1209 -628 s ryb;
#X obj -1159 -696 s rzb;
#X obj -513 -633 ctlout 9 1;
#X obj -812 -892 % 127;
#X obj -868 -768 ctlout 14 1;
#X obj -248 -784 nbx 3 33 -1e+037 1e+037 0 0 empty empty empty 0 -8
0 33 -262144 -1 -1 0 256;
#X obj -244 -1043 int;
#X obj -249 -1084 r rvel;
#X obj -599 -643 s rvel;
#X msg -350 -1058 send /rvel \$1;
#X obj -287 -1198 line;
#X obj -409 -1234 line;
#X obj -360 -1212 line;
#X obj -234 -885 int;
#X obj -234 -904 line;
#X obj -236 -1007 min 32;
#X obj -232 -976 max 10;
#X obj -583 -693 * 32;
#X obj -490 -766 nbx 5 44 -1e+037 1e+037 0 0 empty empty empty 0 -8
0 44 -262144 -1 -1 0 256;
#X obj -587 -721 +;
#X obj -509 -712 abs;
#X obj -577 -765 abs;
#X obj -573 -743 min 1;
#X obj -509 -689 min 1;
#X obj -809 -930 nbx 3 33 -1e+037 1e+037 0 0 empty empty empty 0 -8
0 33 -262144 -1 -1 0 256;
#X obj -448 -1312 nbx 5 14 -1e+037 1e+037 0 0 empty empty empty 0 -8
0 10 -262144 -1 -1 0 256;
#X obj -188 -1176 nbx 3 33 -1e+037 1e+037 0 0 empty empty empty 0 -8
0 33 -262144 -1 -1 0 256;
#X obj -192 -1228 * 127;
#X obj -189 -1200 int;
#X obj -738 -764 s hz2;
#X obj -142 -1099 s rz2;
#X obj -914 -745 r hz2;
#X obj -954 -746 r rz2;
#X obj -926 -724 -;
#X obj -929 -672 nbx 3 44 -1e+037 1e+037 0 0 empty empty empty 0 -8
0 44 -262144 -1 -1 0 256;
#X obj -869 -695 int;
#X obj -869 -719 line;
#X obj -870 -740 pack 0 22;
#X obj -797 -698 s rhd1;
#X obj -202 -1083 r rhd1;
#X obj -233 -859 % 127;
#X obj -598 -1230 loadbang;
#X obj -1241 -840 * -768;
#X obj -1232 -816 + 768;
#X obj -1299 -848 * 1366;
#X obj -169 -851 - 15;
#X obj -227 -924 pack 0 22;
#X obj -1281 -736 * 1366;
#X obj -1224 -729 * -768;
#X obj -1224 -707 + 768;
#X obj -175 -804 max 0;
#X obj -1113 -661 min 768;
#X obj -1114 -638 max 0;
#X obj -1316 -636 max 0;
#X obj -1315 -659 min 1366;
#X obj -1316 -682 - 666;
#X obj -1313 -708 * 2;
#X obj -1111 -710 * 2;
#X obj -1114 -684 - 500;
#X obj -408 -1254 pack 0 133;
#X obj -359 -1231 pack 0 133;
#X obj -285 -1218 pack 0 133;
#X obj -269 -691 bng 15 250 50 0 empty empty empty 17 7 0 10 -262144
-1 -1;
#X obj -155 -672 bng 15 250 50 0 empty empty empty 17 7 0 10 -262144
-1 -1;
#X obj -232 -741 < 1;
#X obj -225 -717 change;
#X obj -223 -696 sel 0 1;
#X obj -344 -658 noteout;
#X msg -344 -679 60 100 2;
#X obj -151 -704 ctlout 123;
#X msg -131 -731 0;
#X obj -1094 -919 routeOSC /torso/position/norm;
#X obj -209 -634 noteout;
#X msg -209 -655 60 0 2;
#X obj -172 -825 min 33;
#X connect 1 0 6 0;
#X connect 1 0 7 0;
#X connect 1 0 43 0;
#X connect 1 0 162 0;
#X connect 2 0 31 0;
#X connect 2 0 133 0;
#X connect 3 0 32 0;
#X connect 3 0 64 0;
#X connect 4 0 34 0;
#X connect 4 0 139 0;
#X connect 5 0 35 0;
#X connect 5 0 92 0;
#X connect 6 0 10 0;
#X connect 7 0 8 0;
#X connect 8 0 9 0;
#X connect 8 1 2 0;
#X connect 8 2 3 0;
#X connect 9 0 30 0;
#X connect 9 0 135 0;
#X connect 10 0 11 0;
#X connect 10 1 4 0;
#X connect 10 2 5 0;
#X connect 11 0 33 0;
#X connect 11 0 138 0;
#X connect 12 0 37 0;
#X connect 19 0 20 0;
#X connect 20 0 36 0;
#X connect 21 0 12 0;
#X connect 22 0 23 0;
#X connect 23 0 40 0;
#X connect 24 0 39 0;
#X connect 25 0 38 0;
#X connect 27 0 24 0;
#X connect 28 0 26 0;
#X connect 28 0 41 0;
#X connect 29 0 25 0;
#X connect 30 0 13 0;
#X connect 31 0 14 0;
#X connect 32 0 15 0;
#X connect 33 0 16 0;
#X connect 34 0 17 0;
#X connect 35 0 18 0;
#X connect 42 0 112 0;
#X connect 43 0 44 0;
#X connect 44 0 42 0;
#X connect 44 1 109 0;
#X connect 45 0 1 0;
#X connect 47 0 46 0;
#X connect 48 0 46 0;
#X connect 55 0 46 0;
#X connect 56 0 47 0;
#X connect 57 0 47 0;
#X connect 61 0 65 0;
#X connect 62 0 57 0;
#X connect 63 0 56 0;
#X connect 64 0 60 0;
#X connect 65 0 47 0;
#X connect 66 0 63 0;
#X connect 67 0 62 0;
#X connect 68 0 61 0;
#X connect 69 0 74 0;
#X connect 70 0 75 0;
#X connect 71 0 72 0;
#X connect 71 1 69 0;
#X connect 71 2 70 0;
#X connect 72 0 73 0;
#X connect 73 0 76 0;
#X connect 74 0 77 0;
#X connect 75 0 78 0;
#X connect 81 0 95 0;
#X connect 81 0 120 0;
#X connect 82 0 79 0;
#X connect 83 0 115 0;
#X connect 84 0 80 0;
#X connect 87 0 150 0;
#X connect 88 0 151 0;
#X connect 89 0 118 0;
#X connect 89 0 152 0;
#X connect 94 0 81 0;
#X connect 96 0 100 0;
#X connect 96 0 155 0;
#X connect 97 0 106 0;
#X connect 98 0 97 0;
#X connect 100 0 47 0;
#X connect 101 0 68 0;
#X connect 102 0 66 0;
#X connect 103 0 67 0;
#X connect 104 0 131 0;
#X connect 105 0 104 0;
#X connect 106 0 107 0;
#X connect 108 0 99 0;
#X connect 109 0 111 0;
#X connect 110 0 108 0;
#X connect 111 0 114 0;
#X connect 112 0 113 0;
#X connect 113 0 110 0;
#X connect 114 0 110 1;
#X connect 115 0 94 0;
#X connect 117 0 121 0;
#X connect 118 0 119 0;
#X connect 119 0 117 0;
#X connect 122 0 124 1;
#X connect 123 0 124 0;
#X connect 124 0 128 0;
#X connect 125 0 129 0;
#X connect 126 0 125 0;
#X connect 127 0 126 0;
#X connect 128 0 127 0;
#X connect 130 0 137 0;
#X connect 131 0 136 0;
#X connect 132 0 55 0;
#X connect 133 0 134 0;
#X connect 134 0 59 0;
#X connect 135 0 58 0;
#X connect 136 0 165 0;
#X connect 137 0 105 0;
#X connect 138 0 147 0;
#X connect 139 0 140 0;
#X connect 140 0 148 0;
#X connect 141 0 96 0;
#X connect 142 0 143 0;
#X connect 143 0 91 0;
#X connect 144 0 90 0;
#X connect 145 0 144 0;
#X connect 146 0 145 0;
#X connect 147 0 146 0;
#X connect 148 0 149 0;
#X connect 149 0 142 0;
#X connect 150 0 102 0;
#X connect 151 0 103 0;
#X connect 152 0 101 0;
#X connect 153 0 159 0;
#X connect 154 0 164 0;
#X connect 155 0 156 0;
#X connect 156 0 157 0;
#X connect 157 0 153 0;
#X connect 157 1 154 0;
#X connect 159 0 158 0;
#X connect 161 0 160 0;
#X connect 162 0 71 0;
#X connect 164 0 163 0;
#X connect 165 0 141 0;
